<svg width="32" height="32" viewBox="0 0 32 32" xmlns="http://www.w3.org/2000/svg">
  <defs>
    <linearGradient id="bgGradient" x1="0%" y1="0%" x2="0%" y2="100%">
      <stop offset="0%" style="stop-color:#f0fdf4;stop-opacity:1" />
      <stop offset="100%" style="stop-color:#bbf7d0;stop-opacity:1" />
    </linearGradient>
  </defs>
  
  <!-- Fond avec dégradé -->
  <rect width="32" height="32" fill="url(#bgGradient)" rx="6"/>
  
  <!-- Groupe de feuilles stylisées -->
  <g transform="translate(16, 16)">
    <!-- Feuille 1 -->
    <path d="M0 0 C3 -3, 6 0, 5 3 C6 6, 3 9, 0 6 C-3 9, -6 6, -5 3 C-6 0, -3 -3, 0 0 Z" 
          fill="#4ade80" transform="translate(-4, -2) rotate(15)"/>
    
    <!-- Feuille 2 -->
    <path d="M0 0 C3 -3, 6 0, 5 3 C6 6, 3 9, 0 6 C-3 9, -6 6, -5 3 C-6 0, -3 -3, 0 0 Z" 
          fill="#22c55e" transform="translate(2, -4) rotate(45)"/>
    
    <!-- Feuille 3 -->
    <path d="M0 0 C3 -3, 6 0, 5 3 C6 6, 3 9, 0 6 C-3 9, -6 6, -5 3 C-6 0, -3 -3, 0 0 Z" 
          fill="#16a34a" transform="translate(0, 4) rotate(-15)"/>
  </g>
</svg>


